<svg width="24" height="24" viewBox="0 0 24 24" fill="none" xmlns="http://www.w3.org/2000/svg">
<path d="M3 12H5.01115C5.3701 12 5.54958 12 5.70804 11.9454C5.84816 11.897 5.97579 11.8181 6.08169 11.7144C6.20143 11.5971 6.2817 11.4366 6.44223 11.1155L8.06571 7.86859C8.66319 6.67363 8.96193 6.07615 9.31712 5.93541C9.6248 5.81349 9.97287 5.8517 10.2468 6.03746C10.563 6.2519 10.725 6.89996 11.049 8.19608L12.4478 13.7911C12.9038 15.6151 13.1318 16.527 13.4942 16.7395C13.8065 16.9227 14.1935 16.9227 14.5058 16.7395C14.8682 16.527 15.0962 15.6151 15.5522 13.7911L15.697 13.2119C15.8053 12.7786 15.8595 12.562 15.9803 12.4006C16.0869 12.2583 16.2295 12.1469 16.3934 12.0781C16.5792 12 16.8026 12 17.2492 12H21" stroke="black" stroke-width="1.5" stroke-linecap="round" stroke-linejoin="round"/>
</svg>
