<svg width="24" height="24" viewBox="0 0 24 24" fill="none" xmlns="http://www.w3.org/2000/svg">
<path d="M8.09344 17.6879L11.3854 13.7375C11.5965 13.4842 11.702 13.3576 11.8283 13.3114C11.9392 13.2709 12.0608 13.2709 12.1716 13.3114C12.298 13.3576 12.4035 13.4842 12.6146 13.7375L15.9065 17.6879C16.2553 18.1064 16.4297 18.3157 16.4324 18.4925C16.4347 18.6461 16.3663 18.7923 16.2467 18.8889C16.1092 19 15.8368 19 15.292 19H8.70802C8.16316 19 7.89073 19 7.75324 18.8889C7.63372 18.7923 7.56524 18.6461 7.56756 18.4925C7.57023 18.3157 7.74463 18.1064 8.09344 17.6879Z" stroke="black" stroke-width="1.5" stroke-linecap="round" stroke-linejoin="round"/>
<path d="M6 17C4.34315 17 3 15.6569 3 14V9.8C3 8.11984 3 7.27976 3.32698 6.63803C3.6146 6.07354 4.07354 5.6146 4.63803 5.32698C5.27976 5 6.11984 5 7.8 5H16.2C17.8802 5 18.7202 5 19.362 5.32698C19.9265 5.6146 20.3854 6.07354 20.673 6.63803C21 7.27976 21 8.11984 21 9.8V14C21 15.6569 19.6569 17 18 17" stroke="black" stroke-width="1.5" stroke-linecap="round"/>
</svg>
