<svg width="24" height="24" viewBox="0 0 24 24" fill="none" xmlns="http://www.w3.org/2000/svg">
<path d="M12 13V9.5" stroke="black" stroke-width="1.5" stroke-linecap="round" stroke-linejoin="round"/>
<path d="M5.17129 12.795L7.84595 8.17516C9.20966 5.81967 9.89151 4.64192 10.7811 4.24636C11.5571 3.90132 12.4429 3.90132 13.2189 4.24636C14.1085 4.64192 14.7903 5.81966 16.154 8.17515L18.8287 12.795C20.1973 15.159 20.8816 16.341 20.7805 17.3111C20.6923 18.1572 20.249 18.9261 19.5609 19.4264C18.772 20 17.4062 20 14.6747 20H9.32534C6.59377 20 5.22798 20 4.43911 19.4264C3.75104 18.9261 3.30773 18.1572 3.21951 17.3111C3.11837 16.341 3.80268 15.159 5.17129 12.795Z" stroke="black" stroke-width="1.5"/>
<path d="M12 16H12.01" stroke="black" stroke-width="2" stroke-linecap="round" stroke-linejoin="round"/>
</svg>
