<svg width="24" height="24" viewBox="0 0 24 24" fill="none" xmlns="http://www.w3.org/2000/svg">
<path d="M19 8.94999V15.2C19 16.8802 19 17.7202 18.673 18.362C18.3854 18.9265 17.9265 19.3854 17.362 19.673C16.7202 20 15.8802 20 14.2 20H9.8C8.11984 20 7.27976 20 6.63803 19.673C6.07354 19.3854 5.6146 18.9265 5.32698 18.362C5 17.7202 5 16.8802 5 15.2V8.94999M5.5 9H18.5C19.8807 9 21 7.88071 21 6.5C21 5.11929 19.8807 4 18.5 4H5.5C4.11929 4 3 5.11929 3 6.5C3 7.88071 4.11929 9 5.5 9Z" stroke="black" stroke-width="1.5"/>
<path d="M10 12H14" stroke="black" stroke-width="1.5" stroke-linecap="round" stroke-linejoin="round"/>
</svg>
