<svg width="24" height="24" viewBox="0 0 24 24" fill="none" xmlns="http://www.w3.org/2000/svg">
<path d="M22 14V10" stroke="black" stroke-width="1.5" stroke-linecap="round" stroke-linejoin="round"/>
<path d="M2 10.8C2 9.11984 2 8.27976 2.32698 7.63803C2.6146 7.07354 3.07354 6.6146 3.63803 6.32698C4.27976 6 5.11984 6 6.8 6H14.2C15.8802 6 16.7202 6 17.362 6.32698C17.9265 6.6146 18.3854 7.07354 18.673 7.63803C19 8.27976 19 9.11984 19 10.8V13.2C19 14.8802 19 15.7202 18.673 16.362C18.3854 16.9265 17.9265 17.3854 17.362 17.673C16.7202 18 15.8802 18 14.2 18H6.8C5.11984 18 4.27976 18 3.63803 17.673C3.07354 17.3854 2.6146 16.9265 2.32698 16.362C2 15.7202 2 14.8802 2 13.2V10.8Z" stroke="black" stroke-width="1.5"/>
</svg>
