<svg width="24" height="24" viewBox="0 0 24 24" fill="none" xmlns="http://www.w3.org/2000/svg">
<path d="M6.63803 20.673L6.29754 21.3413L6.63803 20.673ZM5.32698 19.362L4.65873 19.7025L5.32698 19.362ZM18.891 20.454L18.2228 20.1135L18.891 20.454ZM18.454 20.891L18.1135 20.2228L18.454 20.891ZM17.362 3.32698L17.7025 2.65873L17.362 3.32698ZM18.673 4.63803L19.3413 4.29754L18.673 4.63803ZM6.63803 3.32698L6.29754 2.65873L6.63803 3.32698ZM5.32698 4.63803L4.65873 4.29754L5.32698 4.63803ZM19 16.75C19.4142 16.75 19.75 16.4142 19.75 16C19.75 15.5858 19.4142 15.25 19 15.25V16.75ZM5.85357 17.0245L6.41801 17.5184L6.41801 17.5184L5.85357 17.0245ZM9.8 3.75H14.2V2.25H9.8V3.75ZM18.25 7.8V19.4H19.75V7.8H18.25ZM17.4 20.25H9.8V21.75H17.4V20.25ZM5.75 16.2V7.8H4.25V16.2H5.75ZM9.8 20.25C8.94755 20.25 8.35331 20.2494 7.89068 20.2116C7.4368 20.1745 7.17604 20.1054 6.97852 20.0048L6.29754 21.3413C6.74175 21.5676 7.2219 21.662 7.76853 21.7066C8.30641 21.7506 8.9723 21.75 9.8 21.75V20.25ZM4.25 16.2C4.25 17.0277 4.24942 17.6936 4.29336 18.2315C4.33803 18.7781 4.43238 19.2582 4.65873 19.7025L5.99524 19.0215C5.8946 18.824 5.82546 18.5632 5.78838 18.1093C5.75058 17.6467 5.75 17.0525 5.75 16.2H4.25ZM6.97852 20.0048C6.55516 19.789 6.21095 19.4448 5.99524 19.0215L4.65873 19.7025C5.01825 20.4081 5.59193 20.9817 6.29754 21.3413L6.97852 20.0048ZM18.25 19.4C18.25 19.6924 18.2494 19.8666 18.2389 19.9957C18.229 20.1161 18.2144 20.1299 18.2228 20.1135L19.5593 20.7945C19.6766 20.5642 19.7165 20.331 19.7339 20.1179C19.7506 19.9135 19.75 19.6677 19.75 19.4H18.25ZM17.4 21.75C17.6677 21.75 17.9135 21.7506 18.1179 21.7339C18.331 21.7165 18.5642 21.6766 18.7945 21.5593L18.1135 20.2228C18.1299 20.2144 18.1161 20.229 17.9957 20.2389C17.8666 20.2494 17.6924 20.25 17.4 20.25V21.75ZM18.2228 20.1135C18.1988 20.1605 18.1605 20.1988 18.1135 20.2228L18.7945 21.5593C19.1238 21.3915 19.3915 21.1238 19.5593 20.7945L18.2228 20.1135ZM14.2 3.75C15.0525 3.75 15.6467 3.75058 16.1093 3.78838C16.5632 3.82546 16.824 3.8946 17.0215 3.99524L17.7025 2.65873C17.2582 2.43238 16.7781 2.33803 16.2315 2.29336C15.6936 2.24942 15.0277 2.25 14.2 2.25V3.75ZM19.75 7.8C19.75 6.9723 19.7506 6.30641 19.7066 5.76853C19.662 5.22189 19.5676 4.74175 19.3413 4.29754L18.0048 4.97852C18.1054 5.17604 18.1745 5.4368 18.2116 5.89068C18.2494 6.35331 18.25 6.94755 18.25 7.8H19.75ZM17.0215 3.99524C17.4448 4.21095 17.789 4.55516 18.0048 4.97852L19.3413 4.29754C18.9817 3.59193 18.4081 3.01825 17.7025 2.65873L17.0215 3.99524ZM9.8 2.25C8.9723 2.25 8.30641 2.24942 7.76853 2.29336C7.22189 2.33803 6.74175 2.43238 6.29754 2.65873L6.97852 3.99524C7.17604 3.8946 7.4368 3.82546 7.89068 3.78838C8.35331 3.75058 8.94755 3.75 9.8 3.75V2.25ZM5.75 7.8C5.75 6.94755 5.75058 6.35331 5.78838 5.89068C5.82546 5.4368 5.8946 5.17604 5.99524 4.97852L4.65873 4.29754C4.43238 4.74175 4.33803 5.22189 4.29336 5.76853C4.24942 6.30641 4.25 6.9723 4.25 7.8H5.75ZM6.29754 2.65873C5.59193 3.01825 5.01825 3.59193 4.65873 4.29754L5.99524 4.97852C6.21095 4.55516 6.55516 4.21095 6.97852 3.99524L6.29754 2.65873ZM8.1113 16.75H19V15.25H8.1113V16.75ZM5.28914 16.5306L4.43557 17.5061L5.56443 18.4939L6.41801 17.5184L5.28914 16.5306ZM8.1113 15.25C7.02994 15.25 6.00122 15.7168 5.28914 16.5306L6.41801 17.5184C6.84526 17.0301 7.46249 16.75 8.1113 16.75V15.25Z" fill="black"/>
</svg>
