<svg width="24" height="24" viewBox="0 0 24 24" fill="none" xmlns="http://www.w3.org/2000/svg">
<path d="M13.2 3H10.8C9.11984 3 8.27976 3 7.63803 3.32698C7.07354 3.6146 6.6146 4.07354 6.32698 4.63803C6 5.27976 6 6.11984 6 7.8V17.8C6 18.8299 6 19.3449 6.21264 19.6165C6.39769 19.8528 6.67912 19.9935 6.97921 19.9998C7.32406 20.007 7.73604 19.698 8.56 19.08L9.12 18.66C10.1528 17.8854 10.6692 17.4981 11.2363 17.3488C11.7369 17.2171 12.2631 17.2171 12.7637 17.3488C13.3308 17.4981 13.8472 17.8854 14.88 18.66L15.44 19.08C16.264 19.698 16.6759 20.007 17.0208 19.9998C17.3209 19.9935 17.6023 19.8528 17.7874 19.6165C18 19.3449 18 18.8299 18 17.8V7.8C18 6.11984 18 5.27976 17.673 4.63803C17.3854 4.07354 16.9265 3.6146 16.362 3.32698C15.7202 3 14.8802 3 13.2 3Z" stroke="black" stroke-width="1.5"/>
</svg>
