<svg width="24" height="24" viewBox="0 0 24 24" fill="none" xmlns="http://www.w3.org/2000/svg">
<path d="M3 14V16.2C3 17.8802 3 18.7202 3.32698 19.362C3.6146 19.9265 4.07354 20.3854 4.63803 20.673C5.27976 21 6.11984 21 7.8 21H10" stroke="black" stroke-width="1.5" stroke-linecap="round" stroke-linejoin="round"/>
<path d="M21 14V16.2C21 17.8802 21 18.7202 20.673 19.362C20.3854 19.9265 19.9265 20.3854 19.362 20.673C18.7202 21 17.8802 21 16.2 21H14" stroke="black" stroke-width="1.5" stroke-linecap="round" stroke-linejoin="round"/>
<path d="M3 10V7.8C3 6.11984 3 5.27976 3.32698 4.63803C3.6146 4.07354 4.07354 3.6146 4.63803 3.32698C5.27976 3 6.11984 3 7.8 3H10" stroke="black" stroke-width="1.5" stroke-linecap="round" stroke-linejoin="round"/>
<path d="M21 10V7.8C21 6.11984 21 5.27976 20.673 4.63803C20.3854 4.07354 19.9265 3.6146 19.362 3.32698C18.7202 3 17.8802 3 16.2 3H14" stroke="black" stroke-width="1.5" stroke-linecap="round" stroke-linejoin="round"/>
<path d="M8 12C8 11.07 8 10.605 8.10222 10.2235C8.37962 9.18827 9.18827 8.37962 10.2235 8.10222C10.605 8 11.07 8 12 8C12.93 8 13.395 8 13.7765 8.10222C14.8117 8.37962 15.6204 9.18827 15.8978 10.2235C16 10.605 16 11.07 16 12C16 12.93 16 13.395 15.8978 13.7765C15.6204 14.8117 14.8117 15.6204 13.7765 15.8978C13.395 16 12.93 16 12 16C11.07 16 10.605 16 10.2235 15.8978C9.18827 15.6204 8.37962 14.8117 8.10222 13.7765C8 13.395 8 12.93 8 12Z" stroke="black" stroke-width="1.5"/>
</svg>
