<svg width="24" height="24" viewBox="0 0 24 24" fill="none" xmlns="http://www.w3.org/2000/svg">
<path d="M15 21V6C15 4.34315 13.6569 3 12 3V3C10.3431 3 9 4.34315 9 6V21" stroke="black" stroke-width="1.5"/>
<path d="M21 16.2V12.5C21 11.1022 21 10.4033 20.7716 9.85195C20.4672 9.11687 19.8831 8.53284 19.1481 8.22836C18.5967 8 17.8978 8 16.5 8H7.5C6.10218 8 5.40326 8 4.85195 8.22836C4.11687 8.53284 3.53284 9.11687 3.22836 9.85195C3 10.4033 3 11.1022 3 12.5V16.2C3 17.8802 3 18.7202 3.32698 19.362C3.6146 19.9265 4.07354 20.3854 4.63803 20.673C5.27976 21 6.11984 21 7.8 21H16.2C17.8802 21 18.7202 21 19.362 20.673C19.9265 20.3854 20.3854 19.9265 20.673 19.362C21 18.7202 21 17.8802 21 16.2Z" stroke="black" stroke-width="1.5"/>
</svg>
