<svg width="24" height="24" viewBox="0 0 24 24" fill="none" xmlns="http://www.w3.org/2000/svg">
<path d="M15 21V6C15 4.34315 13.6569 3 12 3C10.3431 3 9 4.34315 9 6V21M21 12.5V16.2C21 17.8802 21 18.7202 20.673 19.362C20.3854 19.9265 19.9265 20.3854 19.362 20.673C18.7202 21 17.8802 21 16.2 21H7.8C6.11984 21 5.27976 21 4.63803 20.673C4.07354 20.3854 3.6146 19.9265 3.32698 19.362C3 18.7202 3 17.8802 3 16.2V12.5C3 11.1022 3 10.4033 3.22836 9.85195C3.53284 9.11687 4.11687 8.53284 4.85195 8.22836C5.40326 8 6.10218 8 7.5 8H16.5C17.8978 8 18.5967 8 19.1481 8.22836C19.8831 8.53284 20.4672 9.11687 20.7716 9.85195C21 10.4033 21 11.1022 21 12.5Z" stroke="black" stroke-width="1.5"/>
</svg>
