<svg width="24" height="24" viewBox="0 0 24 24" fill="none" xmlns="http://www.w3.org/2000/svg">
<path d="M3 10.8C3 9.11984 3 8.27976 3.32698 7.63803C3.6146 7.07354 4.07354 6.6146 4.63803 6.32698C5.27976 6 6.11984 6 7.8 6H10.2C11.8802 6 12.7202 6 13.362 6.32698C13.9265 6.6146 14.3854 7.07354 14.673 7.63803C15 8.27976 15 9.11984 15 10.8V13.2C15 14.8802 15 15.7202 14.673 16.362C14.3854 16.9265 13.9265 17.3854 13.362 17.673C12.7202 18 11.8802 18 10.2 18H7.8C6.11984 18 5.27976 18 4.63803 17.673C4.07354 17.3854 3.6146 16.9265 3.32698 16.362C3 15.7202 3 14.8802 3 13.2V10.8Z" stroke="black" stroke-width="1.5" stroke-linecap="round"/>
<path d="M15 12.1459V11.8541C15 11.2564 15 10.9575 15.0761 10.6895C15.1776 10.3322 15.3766 10.0103 15.6508 9.75972C15.8564 9.57179 16.1237 9.43814 16.6584 9.17082C17.9332 8.53342 18.5706 8.21472 19.0899 8.23809C19.7824 8.26925 20.4093 8.65672 20.7468 9.26214C21 9.7162 21 10.4288 21 11.8541V12.1459C21 13.5712 21 14.2838 20.7468 14.7379C20.4093 15.3433 19.7824 15.7308 19.0899 15.7619C18.5706 15.7853 17.9332 15.4666 16.6584 14.8292C16.1237 14.5619 15.8564 14.4282 15.6508 14.2403C15.3766 13.9897 15.1776 13.6678 15.0761 13.3105C15 13.0425 15 12.7436 15 12.1459Z" stroke="black" stroke-width="1.5" stroke-linecap="round"/>
</svg>
