<svg width="24" height="24" viewBox="0 0 24 24" fill="none" xmlns="http://www.w3.org/2000/svg">
<path d="M21 14.2V9.60555C21 8.16654 19.8335 7 18.3944 7C17.5233 7 16.7097 6.56461 16.2265 5.83975L16 5.5C15.8936 5.34038 15.8404 5.26053 15.7857 5.18835C15.2569 4.49038 14.4495 4.05829 13.5754 4.00546C13.485 4 13.3891 4 13.1972 4H10.8028C10.6109 4 10.515 4 10.4246 4.00546C9.5505 4.05829 8.74314 4.49038 8.21434 5.18835C8.15964 5.26054 8.10643 5.34036 8 5.5L7.7735 5.83975C7.29026 6.56461 6.47673 7 5.60555 7C4.16655 7 3 8.16654 3 9.60555V14.2C3 15.8802 3 16.7202 3.32698 17.362C3.6146 17.9265 4.07354 18.3854 4.63803 18.673C5.27976 19 6.11984 19 7.8 19H16.2C17.8802 19 18.7202 19 19.362 18.673C19.9265 18.3854 20.3854 17.9265 20.673 17.362C21 16.7202 21 15.8802 21 14.2Z" stroke="black" stroke-width="1.5"/>
<path d="M15.5 12.5C15.5 14.433 13.933 16 12 16C10.067 16 8.5 14.433 8.5 12.5C8.5 10.567 10.067 9 12 9C13.933 9 15.5 10.567 15.5 12.5Z" stroke="black" stroke-width="1.5"/>
</svg>
