<svg width="24" height="24" viewBox="0 0 24 24" fill="none" xmlns="http://www.w3.org/2000/svg">
<rect x="3" y="6" width="12" height="12" rx="3" stroke="black" stroke-width="1.5"/>
<path d="M15 12.1459V11.8541C15 11.2564 15 10.9575 15.0761 10.6895C15.1776 10.3322 15.3766 10.0103 15.6508 9.75972C15.8564 9.57179 16.1237 9.43814 16.6584 9.17082C17.9332 8.53342 18.5706 8.21472 19.0899 8.23809C19.7824 8.26925 20.4093 8.65672 20.7468 9.26214C21 9.7162 21 10.4288 21 11.8541V12.1459C21 13.5712 21 14.2838 20.7468 14.7379C20.4093 15.3433 19.7824 15.7308 19.0899 15.7619C18.5706 15.7853 17.9332 15.4666 16.6584 14.8292L16.6584 14.8292C16.1237 14.5619 15.8564 14.4282 15.6508 14.2403C15.3766 13.9897 15.1776 13.6678 15.0761 13.3105C15 13.0425 15 12.7436 15 12.1459Z" stroke="black" stroke-width="1.5" stroke-linecap="round"/>
</svg>
