<svg width="24" height="24" viewBox="0 0 24 24" fill="none" xmlns="http://www.w3.org/2000/svg">
<rect x="8" y="3" width="8" height="4" rx="2" stroke="black" stroke-width="1.5"/>
<path d="M8 11H16" stroke="black" stroke-width="1.5" stroke-linecap="round" stroke-linejoin="round"/>
<path d="M8 14H16" stroke="black" stroke-width="1.5" stroke-linecap="round" stroke-linejoin="round"/>
<path d="M8 17H14" stroke="black" stroke-width="1.5" stroke-linecap="round" stroke-linejoin="round"/>
<path d="M8.5 5V5C8.03558 5 7.80337 5 7.60842 5.02567C6.26222 5.2029 5.2029 6.26222 5.02567 7.60842C5 7.80337 5 8.03558 5 8.5V16.2C5 17.8802 5 18.7202 5.32698 19.362C5.6146 19.9265 6.07354 20.3854 6.63803 20.673C7.27976 21 8.11984 21 9.8 21H14.2C15.8802 21 16.7202 21 17.362 20.673C17.9265 20.3854 18.3854 19.9265 18.673 19.362C19 18.7202 19 17.8802 19 16.2V8.5C19 8.03558 19 7.80337 18.9743 7.60842C18.7971 6.26222 17.7378 5.2029 16.3916 5.02567C16.1966 5 15.9644 5 15.5 5V5" stroke="black" stroke-width="1.5"/>
</svg>
