<svg width="24" height="24" viewBox="0 0 24 24" fill="none" xmlns="http://www.w3.org/2000/svg">
<path d="M8 5C8 6.10457 8.89543 7 10 7H14C15.1046 7 16 6.10457 16 5M8 5C8 3.89543 8.89543 3 10 3H14C15.1046 3 16 3.89543 16 5M8 5C6.34315 5 5 6.34315 5 8V16.2C5 17.8802 5 18.7202 5.32698 19.362C5.6146 19.9265 6.07354 20.3854 6.63803 20.673C7.27976 21 8.11984 21 9.8 21H15C15.93 21 16.395 21 16.7765 20.8978C17.8117 20.6204 18.6204 19.8117 18.8978 18.7765C19 18.395 19 17.93 19 17M16 5C17.6569 5 19 6.34315 19 8V11" stroke="black" stroke-width="1.5" stroke-linecap="round"/>
<path d="M12 18L11.6852 17.7482C10.0837 16.4669 9.28293 15.8263 8.99301 15.0524C8.73882 14.3738 8.73882 13.6262 8.99301 12.9476C9.28293 12.1737 10.0837 11.5331 11.6852 10.2518L12 10" stroke="black" stroke-width="1.5" stroke-linecap="round" stroke-linejoin="round"/>
<path d="M9 14H19" stroke="black" stroke-width="1.5" stroke-linecap="round" stroke-linejoin="round"/>
</svg>
