<svg width="24" height="24" viewBox="0 0 24 24" fill="none" xmlns="http://www.w3.org/2000/svg">
<path d="M9 14H12M12 14H15M12 14V17M12 14V11" stroke="black" stroke-width="1.5" stroke-linecap="round" stroke-linejoin="round"/>
<path d="M8 5C8 3.89543 8.89543 3 10 3H14C15.1046 3 16 3.89543 16 5C16 6.10457 15.1046 7 14 7H10C8.89543 7 8 6.10457 8 5Z" stroke="black" stroke-width="1.5"/>
<path d="M15.5 5C15.9644 5 16.1966 5 16.3916 5.02567C17.7378 5.2029 18.7971 6.26222 18.9743 7.60842C19 7.80337 19 8.03558 19 8.5V16.2C19 17.8802 19 18.7202 18.673 19.362C18.3854 19.9265 17.9265 20.3854 17.362 20.673C16.7202 21 15.8802 21 14.2 21H9.8C8.11984 21 7.27976 21 6.63803 20.673C6.07354 20.3854 5.6146 19.9265 5.32698 19.362C5 18.7202 5 17.8802 5 16.2V8.5C5 8.03558 5 7.80337 5.02567 7.60842C5.2029 6.26222 6.26222 5.2029 7.60842 5.02567C7.80337 5 8.03558 5 8.5 5" stroke="black" stroke-width="1.5"/>
</svg>
