<svg width="24" height="24" viewBox="0 0 24 24" fill="none" xmlns="http://www.w3.org/2000/svg">
<path d="M15 15H16.2C17.8802 15 18.7202 15 19.362 14.673C19.9265 14.3854 20.3854 13.9265 20.673 13.362C21 12.7202 21 11.8802 21 10.2V7.8C21 6.11984 21 5.27976 20.673 4.63803C20.3854 4.07354 19.9265 3.6146 19.362 3.32698C18.7202 3 17.8802 3 16.2 3H13.8C12.1198 3 11.2798 3 10.638 3.32698C10.0735 3.6146 9.6146 4.07354 9.32698 4.63803C9 5.27976 9 6.11984 9 7.8V9" stroke="black" stroke-width="1.5"/>
<rect x="3" y="9" width="12" height="12" rx="3" stroke="black" stroke-width="1.5"/>
</svg>
