<svg width="24" height="24" viewBox="0 0 24 24" fill="none" xmlns="http://www.w3.org/2000/svg">
<path d="M6 10.8C6 9.11984 6 8.27976 6.32698 7.63803C6.6146 7.07354 7.07354 6.6146 7.63803 6.32698C8.27976 6 9.11984 6 10.8 6H13.2C14.8802 6 15.7202 6 16.362 6.32698C16.9265 6.6146 17.3854 7.07354 17.673 7.63803C18 8.27976 18 9.11984 18 10.8V13.2C18 14.8802 18 15.7202 17.673 16.362C17.3854 16.9265 16.9265 17.3854 16.362 17.673C15.7202 18 14.8802 18 13.2 18H10.8C9.11984 18 8.27976 18 7.63803 17.673C7.07354 17.3854 6.6146 16.9265 6.32698 16.362C6 15.7202 6 14.8802 6 13.2V10.8Z" stroke="black" stroke-width="1.5"/>
<path d="M10 11.6C10 11.0399 10 10.7599 10.109 10.546C10.2049 10.3578 10.3578 10.2049 10.546 10.109C10.7599 10 11.0399 10 11.6 10H12.4C12.9601 10 13.2401 10 13.454 10.109C13.6422 10.2049 13.7951 10.3578 13.891 10.546C14 10.7599 14 11.0399 14 11.6V12.4C14 12.9601 14 13.2401 13.891 13.454C13.7951 13.6422 13.6422 13.7951 13.454 13.891C13.2401 14 12.9601 14 12.4 14H11.6C11.0399 14 10.7599 14 10.546 13.891C10.3578 13.7951 10.2049 13.6422 10.109 13.454C10 13.2401 10 12.9601 10 12.4V11.6Z" stroke="black" stroke-width="1.5"/>
<path d="M10 3V6" stroke="black" stroke-width="1.5" stroke-linecap="round" stroke-linejoin="round"/>
<path d="M10 18V21" stroke="black" stroke-width="1.5" stroke-linecap="round" stroke-linejoin="round"/>
<path d="M14 3V6" stroke="black" stroke-width="1.5" stroke-linecap="round" stroke-linejoin="round"/>
<path d="M14 18V21" stroke="black" stroke-width="1.5" stroke-linecap="round" stroke-linejoin="round"/>
<path d="M3 10H6" stroke="black" stroke-width="1.5" stroke-linecap="round" stroke-linejoin="round"/>
<path d="M18 10H21" stroke="black" stroke-width="1.5" stroke-linecap="round" stroke-linejoin="round"/>
<path d="M3 14H6" stroke="black" stroke-width="1.5" stroke-linecap="round" stroke-linejoin="round"/>
<path d="M18 14H21" stroke="black" stroke-width="1.5" stroke-linecap="round" stroke-linejoin="round"/>
</svg>
