<svg width="24" height="24" viewBox="0 0 24 24" fill="none" xmlns="http://www.w3.org/2000/svg">
<path d="M6 15H11" stroke="black" stroke-width="1.5" stroke-linecap="round" stroke-linejoin="round"/>
<path d="M3 9.8C3 8.11984 3 7.27976 3.32698 6.63803C3.6146 6.07354 4.07354 5.6146 4.63803 5.32698C5.27976 5 6.11984 5 7.8 5H16.2C17.8802 5 18.7202 5 19.362 5.32698C19.9265 5.6146 20.3854 6.07354 20.673 6.63803C21 7.27976 21 8.11984 21 9.8V14.2C21 15.8802 21 16.7202 20.673 17.362C20.3854 17.9265 19.9265 18.3854 19.362 18.673C18.7202 19 17.8802 19 16.2 19H7.8C6.11984 19 5.27976 19 4.63803 18.673C4.07354 18.3854 3.6146 17.9265 3.32698 17.362C3 16.7202 3 15.8802 3 14.2V9.8Z" stroke="black" stroke-width="1.5"/>
<path d="M3 10L21 10" stroke="black" stroke-width="1.5" stroke-linecap="round" stroke-linejoin="round"/>
</svg>
