<svg fill="none" height="24" viewBox="0 0 24 24" width="24" xmlns="http://www.w3.org/2000/svg"><path clip-rule="evenodd" d="m7.7679 4.25h.0321 8.4.0321c.8128-.00001 1.4685-.00001 1.9994.04336.5466.04467 1.0267.13903 1.471.36537.7056.35952 1.2792.9332 1.6388 1.63881.2263.44421.3207.92436.3653 1.47099.0434.53091.0434 1.18652.0434 1.99935v.03212 4.4.0321c0 .8129 0 1.4685-.0434 1.9994-.0446.5466-.139 1.0267-.3653 1.471-.3596.7056-.9332 1.2792-1.6388 1.6388-.4443.2263-.9244.3207-1.471.3653-.5309.0434-1.1865.0434-1.9994.0434h-.0321-8.4-.03212c-.81283 0-1.46844 0-1.99935-.0434-.54663-.0446-1.02678-.139-1.47099-.3653-.70561-.3596-1.27929-.9332-1.63881-1.6388-.22634-.4443-.3207-.9244-.36537-1.471-.04337-.5309-.04337-1.1865-.04336-1.9994v-.0321-4.4-.0321-.00002c-.00001-.81283-.00001-1.46844.04336-1.99935.04467-.54663.13903-1.02678.36537-1.47099.35952-.70561.9332-1.27929 1.63881-1.63881.44421-.22634.92436-.3207 1.47099-.36537.53091-.04337 1.18653-.04337 1.99937-.04336zm-1.87722 1.53838c-.45387.03709-.71464.10622-.91216.20686-.42336.21571-.76757.55992-.98328.98328-.10064.19752-.16977.45828-.20686.91216-.02908.35597-.03613.78985-.03784 1.35932h16.49896c-.0017-.56947-.0088-1.00335-.0379-1.35932-.0371-.45388-.1062-.71464-.2068-.91216-.2158-.42336-.56-.76757-.9833-.98328-.1975-.10064-.4583-.16977-.9122-.20686-.4626-.0378-1.0568-.03838-1.9093-.03838h-8.4c-.85245 0-1.44669.00058-1.90932.03838zm-2.14068 8.41162v-3.45h16.5v3.45c0 .8525-.0006 1.4467-.0384 1.9093-.0371.4539-.1062.7147-.2068.9122-.2158.4233-.56.7675-.9833.9833-.1975.1006-.4583.1697-.9122.2068-.4626.0378-1.0568.0384-1.9093.0384h-8.4c-.85245 0-1.44669-.0006-1.90932-.0384-.45387-.0371-.71464-.1062-.91216-.2068-.42336-.2158-.76757-.56-.98328-.9833-.10064-.1975-.16977-.4583-.20686-.9122-.0378-.4626-.03838-1.0568-.03838-1.9093zm2.25.05c-.41421 0-.75.3358-.75.75s.33579.75.75.75h5c.4142 0 .75-.3358.75-.75s-.3358-.75-.75-.75z" fill="#000" fill-rule="evenodd"/></svg>