<svg fill="none" height="24" viewBox="0 0 24 24" width="24" xmlns="http://www.w3.org/2000/svg"><path clip-rule="evenodd" d="m8.75 3c0-.41421-.33579-.75-.75-.75s-.75.33579-.75.75v4.25h-4.25c-.41421 0-.75.33579-.75.75s.33579.75.75.75h4.25v2.45.0321c-.00001.8128-.00001 1.4685.04336 1.9994.04467.5466.13902 1.0267.36537 1.471.35952.7056.9332 1.2792 1.63881 1.6388.44421.2263.92436.3207 1.47096.3653.5309.0434 1.1865.0434 1.9994.0434h.0321 2.45v4.25c0 .4142.3358.75.75.75s.75-.3358.75-.75v-4.25h4.25c.4142 0 .75-.3358.75-.75s-.3358-.75-.75-.75h-4.25v-2.45-.0321c0-.8129 0-1.4685-.0434-1.9994-.0446-.5466-.139-1.02675-.3653-1.47096-.3596-.70561-.9332-1.27929-1.6388-1.63881-.4443-.22635-.9244-.3207-1.471-.36537-.5309-.04337-1.1866-.04337-1.9994-.04336h-.0321-2.45zm0 5.75v2.45c0 .8525.00058 1.4467.03838 1.9093.03708.4539.10622.7147.20686.9122.21571.4233.55992.7675.98328.9833.19748.1006.45828.1697.91218.2068.4626.0378 1.0568.0384 1.9093.0384h2.45v-2.45c0-.8525-.0006-1.4467-.0384-1.9093-.0371-.4539-.1062-.7147-.2068-.91218-.2158-.42336-.56-.76757-.9833-.98328-.1975-.10064-.4583-.16978-.9122-.20686-.4626-.0378-1.0568-.03838-1.9093-.03838z" fill="#000" fill-rule="evenodd"/></svg>