<svg width="24" height="24" viewBox="0 0 24 24" fill="none" xmlns="http://www.w3.org/2000/svg">
<path d="M19.3343 10C19.7625 10.6125 20 11.2889 20 12C20 14.7614 16.4183 17 12 17C7.58172 17 4 14.7614 4 12C4 11.2889 4.23752 10.6125 4.66567 10M4.66567 14C4.23752 14.6125 4 15.2889 4 16C4 18.7614 7.58172 21 12 21C16.4183 21 20 18.7614 20 16C20 15.2889 19.7625 14.6125 19.3343 14M4.66567 10C5.90016 11.7659 8.71949 13 12 13C16.4183 13 20 10.7614 20 8C20 5.23858 16.4183 3 12 3C7.58172 3 4 5.23858 4 8C4 8.7111 4.23752 9.38754 4.66567 10Z" stroke="black" stroke-width="1.5"/>
</svg>
