<svg width="24" height="24" viewBox="0 0 24 24" fill="none" xmlns="http://www.w3.org/2000/svg">
<path d="M6 7.8C6 6.11984 6 5.27976 6.32698 4.63803C6.6146 4.07354 7.07354 3.6146 7.63803 3.32698C8.27976 3 9.11984 3 10.8 3H13.2C14.8802 3 15.7202 3 16.362 3.32698C16.9265 3.6146 17.3854 4.07354 17.673 4.63803C18 5.27976 18 6.11984 18 7.8V16.2C18 17.8802 18 18.7202 17.673 19.362C17.3854 19.9265 16.9265 20.3854 16.362 20.673C15.7202 21 14.8802 21 13.2 21H10.8C9.11984 21 8.27976 21 7.63803 20.673C7.07354 20.3854 6.6146 19.9265 6.32698 19.362C6 18.7202 6 17.8802 6 16.2V7.8Z" stroke="black" stroke-width="1.5"/>
<path d="M10 18H14" stroke="black" stroke-width="1.5" stroke-linecap="round" stroke-linejoin="round"/>
</svg>
