<svg width="24" height="24" viewBox="0 0 24 24" fill="none" xmlns="http://www.w3.org/2000/svg">
<path d="M12 4V16" stroke="black" stroke-width="1.5" stroke-linecap="round" stroke-linejoin="round"/>
<path d="M18 12L15.3941 14.6059C14.2061 15.7939 13.612 16.388 12.9271 16.6105C12.3245 16.8063 11.6755 16.8063 11.0729 16.6105C10.388 16.388 9.79394 15.7939 8.60589 14.6059L6 12" stroke="black" stroke-width="1.5" stroke-linecap="round" stroke-linejoin="round"/>
<path d="M3 15V15.2C3 16.8802 3 17.7202 3.32698 18.362C3.6146 18.9265 4.07354 19.3854 4.63803 19.673C5.27976 20 6.11984 20 7.8 20H16.2C17.8802 20 18.7202 20 19.362 19.673C19.9265 19.3854 20.3854 18.9265 20.673 18.362C21 17.7202 21 16.8802 21 15.2V15" stroke="black" stroke-width="1.5" stroke-linecap="round"/>
</svg>
