<svg width="24" height="24" viewBox="0 0 24 24" fill="none" xmlns="http://www.w3.org/2000/svg">
<path d="M12 20H20" stroke="black" stroke-width="1.5" stroke-linecap="round" stroke-linejoin="round"/>
<path d="M16.9521 9.85139L19.4194 7.38415C19.6035 7.20007 19.7495 6.98153 19.8491 6.74102C19.9487 6.5005 20 6.24272 20 5.98239C20 5.72206 19.9487 5.46428 19.8491 5.22376C19.7495 4.98325 19.6035 4.76471 19.4194 4.58063C19.2353 4.39655 19.0168 4.25052 18.7762 4.1509C18.5357 4.05128 18.2779 4 18.0176 4C17.4918 4 16.9876 4.20886 16.6158 4.58063L14.1486 7.04788M16.9521 9.85139L7.73803 19.0655L4 20L4.93451 16.262L14.1486 7.04788M16.9521 9.85139L14.1486 7.04788" stroke="black" stroke-width="1.5" stroke-linecap="round" stroke-linejoin="round"/>
</svg>
