<svg width="24" height="24" viewBox="0 0 24 24" fill="none" xmlns="http://www.w3.org/2000/svg">
<path d="M2.69749 12.3977C2.56499 12.1453 2.56499 11.8547 2.69749 11.6023C3.47576 10.1199 6.55764 5 12 5C17.4424 5 20.5243 10.1199 21.3025 11.6023C21.435 11.8547 21.435 12.1453 21.3025 12.3977C20.5243 13.8801 17.4424 19 12 19C6.55765 19 3.47576 13.8801 2.69749 12.3977Z" stroke="black" stroke-width="1.5" stroke-linecap="round" stroke-linejoin="round"/>
<path d="M3 12C3 12 5.63636 11 12 11C18.3636 11 21 12 21 12" stroke="black" stroke-width="1.5" stroke-linecap="round" stroke-linejoin="round"/>
<path d="M14.9585 11.5C14.9858 11.6626 15 11.8296 15 12C15 13.6569 13.6569 15 12 15C10.3431 15 9 13.6569 9 12C9 11.8296 9.0142 11.6626 9.04148 11.5" stroke="black" stroke-width="1.5" stroke-linecap="round" stroke-linejoin="round"/>
</svg>
