<svg width="24" height="24" viewBox="0 0 24 24" fill="none" xmlns="http://www.w3.org/2000/svg">
<path d="M3 9.8V14.2C3 15.8802 3 16.7202 3.32698 17.362C3.6146 17.9265 4.07354 18.3854 4.63803 18.673C5.27976 19 6.11984 19 7.8 19H16.2C17.8802 19 18.7202 19 19.362 18.673C19.9265 18.3854 20.3854 17.9265 20.673 17.362C21 16.7202 21 15.8802 21 14.2V12.8C21 11.1198 21 10.2798 20.673 9.63803C20.3854 9.07354 19.9265 8.6146 19.362 8.32698C18.7202 8 17.8802 8 16.2 8H14.8028C14.6109 8 14.515 8 14.4246 7.99454C13.5505 7.94171 12.7431 7.50962 12.2143 6.81165C12.1596 6.73947 12.1064 6.65962 12 6.5C11.8936 6.34038 11.8404 6.26053 11.7857 6.18835C11.2569 5.49038 10.4495 5.05829 9.57543 5.00546C9.48502 5 9.38909 5 9.19722 5H7.8C6.11984 5 5.27976 5 4.63803 5.32698C4.07354 5.6146 3.6146 6.07354 3.32698 6.63803C3 7.27976 3 8.11984 3 9.8Z" stroke="black" stroke-width="1.5" stroke-linecap="round"/>
</svg>
