<svg width="24" height="24" viewBox="0 0 24 24" fill="none" xmlns="http://www.w3.org/2000/svg">
<path d="M9.77917 19.0122L9.03376 19.0951L9.03376 19.0951L9.77917 19.0122ZM7.03769 17.4294L7.33867 18.1164L7.33867 18.1164L7.03769 17.4294ZM4.20581 16.5L3.55629 16.875L3.55629 16.875L4.20581 16.5ZM4.81683 13.5828L5.26126 14.1869L5.26126 14.1869L4.81683 13.5828ZM4.81683 10.4172L5.26127 9.81307L4.81683 10.4172ZM4.20581 7.5L3.55629 7.125L3.55629 7.125L4.20581 7.5ZM7.03769 6.57056L7.33867 5.8836L7.33867 5.8836L7.03769 6.57056ZM9.77917 4.98777L10.5246 5.07059L10.5246 5.07059L9.77917 4.98777ZM14.2209 4.98777L13.4755 5.07059L13.4755 5.07059L14.2209 4.98777ZM16.9624 6.57056L16.6614 5.8836L16.6614 5.8836L16.9624 6.57056ZM19.7943 7.5L20.4438 7.125L20.4438 7.125L19.7943 7.5ZM19.1832 10.4172L19.6277 11.0213L19.6277 11.0213L19.1832 10.4172ZM19.1832 13.5828L18.7388 14.1869L18.7388 14.1869L19.1832 13.5828ZM19.7943 16.5L20.4438 16.875L20.4438 16.875L19.7943 16.5ZM16.9624 17.4294L17.2634 16.7425L17.2634 16.7425L16.9624 17.4294ZM14.2209 19.0122L13.4755 18.9294L13.4755 18.9294L14.2209 19.0122ZM18.5136 10.9098L18.9581 11.514L18.5136 10.9098ZM16.2015 6.90393L15.9005 6.21697L16.2015 6.90393ZM5.48646 10.9098L5.04203 11.514L5.48646 10.9098ZM7.79859 6.90393L7.49761 7.59089L7.79859 6.90393ZM7.79859 17.0961L7.49761 16.4091L7.79859 17.0961ZM16.2015 17.0961L15.9005 17.783L16.2015 17.0961ZM14.3126 5.81302L13.5672 5.89584L14.3126 5.81302ZM14.3126 18.187L13.5672 18.1042L14.3126 18.187ZM5.48646 13.0902L5.04203 12.486L5.48646 13.0902ZM9.03376 19.0951C9.2017 20.6065 10.4793 21.75 12 21.75V20.25C11.2436 20.25 10.6081 19.6812 10.5246 18.9294L9.03376 19.0951ZM8.94206 18.2698L9.03376 19.0951L10.5246 18.9294L10.4329 18.1042L8.94206 18.2698ZM7.33867 18.1164L8.09957 17.783L7.49761 16.4091L6.73672 16.7425L7.33867 18.1164ZM3.55629 16.875C4.31667 18.192 5.94574 18.7267 7.33867 18.1164L6.73672 16.7425C6.04386 17.046 5.23354 16.7801 4.85532 16.125L3.55629 16.875ZM4.3724 12.9787C3.1474 13.8798 2.7959 15.558 3.55629 16.875L4.85532 16.125C4.4771 15.4699 4.65194 14.6352 5.26126 14.1869L4.3724 12.9787ZM5.04203 12.486L4.3724 12.9787L5.26126 14.1869L5.9309 13.6943L5.04203 12.486ZM4.3724 11.0213L5.04203 11.514L5.9309 10.3057L5.26127 9.81307L4.3724 11.0213ZM3.55629 7.125C2.79591 8.44202 3.1474 10.1202 4.3724 11.0213L5.26127 9.81307C4.65194 9.36482 4.47711 8.5301 4.85533 7.875L3.55629 7.125ZM7.33867 5.8836C5.94574 5.27331 4.31667 5.80798 3.55629 7.125L4.85533 7.875C5.23355 7.2199 6.04386 6.95395 6.73672 7.25752L7.33867 5.8836ZM8.09957 6.21698L7.33867 5.8836L6.73672 7.25752L7.49761 7.59089L8.09957 6.21698ZM9.03376 4.90494L8.94206 5.7302L10.4329 5.89585L10.5246 5.07059L9.03376 4.90494ZM12 2.25C10.4793 2.25 9.2017 3.39348 9.03376 4.90494L10.5246 5.07059C10.6081 4.31878 11.2436 3.75 12 3.75V2.25ZM14.9663 4.90494C14.7984 3.39348 13.5208 2.25 12 2.25V3.75C12.7565 3.75 13.392 4.31878 13.4755 5.07059L14.9663 4.90494ZM15.058 5.73019L14.9663 4.90494L13.4755 5.07059L13.5672 5.89584L15.058 5.73019ZM16.6614 5.8836L15.9005 6.21697L16.5025 7.59089L17.2634 7.25752L16.6614 5.8836ZM20.4438 7.125C19.6834 5.80798 18.0543 5.27331 16.6614 5.8836L17.2634 7.25752C17.9562 6.95395 18.7665 7.2199 19.1447 7.875L20.4438 7.125ZM19.6277 11.0213C20.8527 10.1202 21.2042 8.44202 20.4438 7.125L19.1447 7.875C19.523 8.5301 19.3481 9.36482 18.7388 9.81307L19.6277 11.0213ZM18.9581 11.514L19.6277 11.0213L18.7388 9.81307L18.0692 10.3057L18.9581 11.514ZM19.6277 12.9787L18.958 12.486L18.0692 13.6943L18.7388 14.1869L19.6277 12.9787ZM20.4438 16.875C21.2042 15.558 20.8527 13.8798 19.6277 12.9787L18.7388 14.1869C19.3481 14.6352 19.523 15.4699 19.1447 16.125L20.4438 16.875ZM16.6614 18.1164C18.0543 18.7267 19.6834 18.192 20.4438 16.875L19.1447 16.125C18.7665 16.7801 17.9562 17.046 17.2634 16.7425L16.6614 18.1164ZM15.9005 17.783L16.6614 18.1164L17.2634 16.7425L16.5025 16.4091L15.9005 17.783ZM14.9663 19.0951L15.058 18.2698L13.5672 18.1042L13.4755 18.9294L14.9663 19.0951ZM12 21.75C13.5208 21.75 14.7984 20.6065 14.9663 19.0951L13.4755 18.9294C13.392 19.6812 12.7565 20.25 12 20.25V21.75ZM18.0692 10.3057C17.5002 10.7243 17.25 11.3851 17.25 12H18.75C18.75 11.7669 18.844 11.5979 18.9581 11.514L18.0692 10.3057ZM14.6259 7.4527C15.1593 7.76151 15.8555 7.87436 16.5025 7.59089L15.9005 6.21697C15.7701 6.2741 15.5784 6.2709 15.3774 6.15452L14.6259 7.4527ZM6.75004 12C6.75004 11.3851 6.49992 10.7243 5.9309 10.3057L5.04203 11.514C5.15609 11.5979 5.25004 11.7669 5.25004 12H6.75004ZM17.25 12C17.25 12.6149 17.5002 13.2757 18.0692 13.6943L18.958 12.486C18.844 12.4021 18.75 12.2331 18.75 12H17.25ZM10.4329 18.1042C10.3547 17.4005 9.90393 16.854 9.3742 16.5473L8.62271 17.8455C8.82664 17.9635 8.92663 18.1309 8.94206 18.2698L10.4329 18.1042ZM7.49761 7.59089C8.1446 7.87436 8.84073 7.76151 9.3742 7.4527L8.62271 6.15452C8.42167 6.2709 8.22995 6.2741 8.09957 6.21698L7.49761 7.59089ZM9.3742 7.4527C9.90393 7.14605 10.3547 6.59949 10.4329 5.89585L8.94206 5.7302C8.92663 5.86908 8.82664 6.03647 8.62271 6.15452L9.3742 7.4527ZM9.3742 16.5473C8.84073 16.2385 8.1446 16.1256 7.49761 16.4091L8.09957 17.783C8.22995 17.7259 8.42167 17.7291 8.62271 17.8455L9.3742 16.5473ZM16.5025 16.4091C15.8555 16.1256 15.1593 16.2385 14.6259 16.5473L15.3774 17.8455C15.5784 17.7291 15.7701 17.7259 15.9005 17.783L16.5025 16.4091ZM13.5672 5.89584C13.6454 6.59949 14.0961 7.14605 14.6259 7.4527L15.3774 6.15452C15.1734 6.03647 15.0734 5.86908 15.058 5.73019L13.5672 5.89584ZM14.6259 16.5473C14.0961 16.854 13.6454 17.4005 13.5672 18.1042L15.058 18.2698C15.0734 18.1309 15.1734 17.9635 15.3774 17.8455L14.6259 16.5473ZM5.9309 13.6943C6.49992 13.2757 6.75004 12.6149 6.75004 12H5.25004C5.25004 12.2331 5.15609 12.4021 5.04203 12.486L5.9309 13.6943Z" fill="black"/>
<circle cx="12" cy="12" r="2" stroke="black" stroke-width="1.5"/>
</svg>
