<svg width="24" height="24" viewBox="0 0 24 24" fill="none" xmlns="http://www.w3.org/2000/svg">
<path d="M3 11.5689C3 10.6297 3 10.1601 3.12945 9.7338C3.24406 9.35643 3.43194 9.00536 3.68236 8.70068C3.96523 8.35651 4.35597 8.09602 5.13744 7.57504L9.33744 4.77504C10.2997 4.13353 10.7808 3.81277 11.3009 3.68815C11.7605 3.57802 12.2395 3.57802 12.6991 3.68815C13.2192 3.81277 13.7003 4.13353 14.6626 4.77504L18.8626 7.57504C19.644 8.09602 20.0348 8.35651 20.3176 8.70068C20.5681 9.00536 20.7559 9.35643 20.8705 9.7338C21 10.1601 21 10.6297 21 11.5689V16.2C21 17.8802 21 18.7202 20.673 19.362C20.3854 19.9265 19.9265 20.3854 19.362 20.673C18.7202 21 17.8802 21 16.2 21H7.8C6.11984 21 5.27976 21 4.63803 20.673C4.07354 20.3854 3.6146 19.9265 3.32698 19.362C3 18.7202 3 17.8802 3 16.2V11.5689Z" stroke="black" stroke-width="1.5"/>
<path d="M9 15C9 13.3431 10.3431 12 12 12C13.6569 12 15 13.3431 15 15V21H9V15Z" stroke="black" stroke-width="1.5"/>
</svg>
