<svg width="24" height="24" viewBox="0 0 24 24" fill="none" xmlns="http://www.w3.org/2000/svg">
<path d="M4.16473 7.75873C4.46277 6.41755 4.61179 5.74696 4.97241 5.24639C5.2905 4.80487 5.72269 4.45818 6.2227 4.24345C6.78957 4 7.47652 4 8.85042 4H15.1496C16.5235 4 17.2104 4 17.7773 4.24345C18.2773 4.45818 18.7095 4.80487 19.0276 5.24639C19.3882 5.74696 19.5372 6.41755 19.8353 7.75873L20.8857 12.4856C20.9285 12.6783 20.9499 12.7746 20.9649 12.8719C20.9783 12.9584 20.9878 13.0454 20.9935 13.1327C21 13.2309 21 13.3296 21 13.5269V15.2C21 16.8802 21 17.7202 20.673 18.362C20.3854 18.9265 19.9265 19.3854 19.362 19.673C18.7202 20 17.8802 20 16.2 20H7.8C6.11984 20 5.27976 20 4.63803 19.673C4.07354 19.3854 3.6146 18.9265 3.32698 18.362C3 17.7202 3 16.8802 3 15.2V13.5269C3 13.3296 3 13.2309 3.00645 13.1327C3.01219 13.0454 3.02174 12.9584 3.03508 12.8719C3.05008 12.7746 3.07149 12.6783 3.1143 12.4856L4.16473 7.75873Z" stroke="black" stroke-width="1.5"/>
<path d="M3 13H7.58579C7.851 13 8.10536 13.1054 8.29289 13.2929L9.70711 14.7071C9.89464 14.8946 10.149 15 10.4142 15H13.5858C13.851 15 14.1054 14.8946 14.2929 14.7071L15.7071 13.2929C15.8946 13.1054 16.149 13 16.4142 13H21" stroke="black" stroke-width="1.5" stroke-linejoin="round"/>
</svg>
