<svg width="24" height="24" viewBox="0 0 24 24" fill="none" xmlns="http://www.w3.org/2000/svg">
<path d="M17 5V19" stroke="black" stroke-width="1.5" stroke-linecap="round" stroke-linejoin="round"/>
<path d="M20 5H14" stroke="black" stroke-width="1.5" stroke-linecap="round"/>
<path d="M20 19H14" stroke="black" stroke-width="1.5" stroke-linecap="round"/>
<path d="M14 8H7C6.07003 8 5.60504 8 5.22354 8.10222C4.18827 8.37962 3.37962 9.18827 3.10222 10.2235C3 10.605 3 11.07 3 12C3 12.93 3 13.395 3.10222 13.7765C3.37962 14.8117 4.18827 15.6204 5.22354 15.8978C5.60504 16 6.07003 16 7 16H14" stroke="black" stroke-width="1.5" stroke-linecap="round"/>
<path d="M17 16C17.93 16 18.395 16 18.7765 15.8978C19.8117 15.6204 20.6204 14.8117 20.8978 13.7765C21 13.395 21 12.93 21 12C21 11.07 21 10.605 20.8978 10.2235C20.6204 9.18827 19.8117 8.37962 18.7765 8.10222C18.395 8 17.93 8 17 8" stroke="black" stroke-width="1.5" stroke-linecap="round"/>
</svg>
