<svg width="24" height="24" viewBox="0 0 24 24" fill="none" xmlns="http://www.w3.org/2000/svg">
<path d="M20.9885 8.99999L15.1889 14.1654C14.0606 15.1684 13.4964 15.6699 12.8597 15.8603C12.2989 16.0281 11.7011 16.0281 11.1403 15.8603C10.5036 15.6699 9.93941 15.1684 8.81105 14.1654L3.01151 8.99999M10.0505 3.86643L5.85054 5.73309C4.81875 6.19167 4.30285 6.42095 3.92456 6.78339C3.59018 7.10375 3.33451 7.49718 3.17756 7.93285C3 8.42573 3 8.99028 3 10.1194V16.2C3 17.8802 3 18.7202 3.32698 19.362C3.6146 19.9265 4.07354 20.3854 4.63803 20.673C5.27976 21 6.11984 21 7.8 21H16.2C17.8802 21 18.7202 21 19.362 20.673C19.9265 20.3854 20.3854 19.9265 20.673 19.362C21 18.7202 21 17.8802 21 16.2V10.1194C21 8.99028 21 8.42573 20.8224 7.93285C20.6655 7.49718 20.4098 7.10375 20.0754 6.78339C19.6972 6.42095 19.1813 6.19167 18.1495 5.73309L13.9495 3.86643C13.2316 3.54737 12.8726 3.38784 12.4995 3.32483C12.1689 3.26899 11.8311 3.26899 11.5005 3.32483C11.1274 3.38784 10.7684 3.54737 10.0505 3.86643Z" stroke="black" stroke-width="1.5" stroke-linecap="round" stroke-linejoin="round"/>
</svg>
