<svg width="24" height="24" viewBox="0 0 24 24" fill="none" xmlns="http://www.w3.org/2000/svg">
<path d="M13 20.6779V18.8C13 17.1199 13 16.2798 13.327 15.638C13.6146 15.0736 14.0735 14.6146 14.638 14.327C15.2798 14 16.1198 14 17.8 14L20.4455 14" stroke="black" stroke-width="1.5" stroke-linecap="round" stroke-linejoin="round"/>
<path d="M16.2 3H7.8C6.11984 3 5.27976 3 4.63803 3.32698C4.07354 3.6146 3.6146 4.07354 3.32698 4.63803C3 5.27976 3 6.11984 3 7.8V16.2C3 17.8802 3 18.7202 3.32698 19.362C3.6146 19.9265 4.07354 20.3854 4.63803 20.673C5.27976 21 6.11984 21 7.8 21H11.1965C11.8638 21 12.1975 21 12.5147 20.9305C12.7961 20.8689 13.0671 20.767 13.3194 20.6282C13.6039 20.4716 13.855 20.2518 14.3573 19.8124L19.3608 15.4343C19.964 14.9065 20.2656 14.6426 20.4821 14.3236C20.674 14.041 20.8162 13.7277 20.9025 13.3971C21 13.0242 21 12.6234 21 11.8219V7.8C21 6.11984 21 5.27976 20.673 4.63803C20.3854 4.07354 19.9265 3.6146 19.362 3.32698C18.7202 3 17.8802 3 16.2 3Z" stroke="black" stroke-width="1.5"/>
</svg>
