<svg width="24" height="24" viewBox="0 0 24 24" fill="none" xmlns="http://www.w3.org/2000/svg">
<path d="M5 13.0277V10.9723C5 8.34157 5 7.02618 5.55368 6.24619C6.03696 5.56538 6.78207 5.11676 7.60988 5.00819C8.55829 4.8838 9.72081 5.49925 12.0459 6.73016L13.987 7.75782C16.5862 9.13385 17.8857 9.82186 18.3106 10.7397C18.6807 11.5391 18.6807 12.4609 18.3106 13.2603C17.8857 14.1781 16.5862 14.8662 13.987 16.2422L12.0459 17.2698C9.72081 18.5007 8.55829 19.1162 7.60988 18.9918C6.78207 18.8832 6.03696 18.4346 5.55368 17.7538C5 16.9738 5 15.6584 5 13.0277Z" stroke="black" stroke-width="1.5"/>
</svg>
