<svg width="24" height="24" viewBox="0 0 24 24" fill="none" xmlns="http://www.w3.org/2000/svg">
<path d="M9 14.1132V9.8868C9 8.94461 9 8.47351 9.1972 8.208C9.36909 7.97656 9.6325 7.83057 9.91987 7.80746C10.2495 7.78096 10.649 8.03064 11.448 8.53L14.8291 10.6432C15.549 11.0931 15.9089 11.3181 16.0324 11.6061C16.1402 11.8576 16.1402 12.1424 16.0324 12.3939C15.9089 12.6819 15.549 12.9069 14.8291 13.3568L11.448 15.47C10.649 15.9694 10.2495 16.219 9.91987 16.1925C9.6325 16.1694 9.36909 16.0234 9.1972 15.792C9 15.5265 9 15.0554 9 14.1132Z" stroke="black" stroke-width="1.5"/>
<circle cx="12" cy="12" r="9" stroke="black" stroke-width="1.5"/>
</svg>
