<svg width="24" height="24" viewBox="0 0 24 24" fill="none" xmlns="http://www.w3.org/2000/svg">
<path d="M7.5 9V9C6.10218 9 5.40326 9 4.85195 9.22836C4.11687 9.53284 3.53284 10.1169 3.22836 10.8519C3 11.4033 3 12.1022 3 13.5V16.2C3 17.8802 3 18.7202 3.32698 19.362C3.6146 19.9265 4.07354 20.3854 4.63803 20.673C5.27976 21 6.11984 21 7.8 21H11C11.93 21 12.395 21 12.7765 20.8978C13.8117 20.6204 14.6204 19.8117 14.8978 18.7765C15 18.395 15 17.93 15 17V17" stroke="black" stroke-width="1.5"/>
<rect x="11.8038" y="1.80385" width="12" height="12" rx="3" transform="rotate(30 11.8038 1.80385)" stroke="black" stroke-width="1.5"/>
</svg>
