<svg width="24" height="24" viewBox="0 0 24 24" fill="none" xmlns="http://www.w3.org/2000/svg">
<path d="M18 8H6C5.44772 8 5 8.44772 5 9V10C5 10.5523 5.44772 11 6 11H18C18.5523 11 19 10.5523 19 10V9C19 8.44772 18.5523 8 18 8Z" stroke="black" stroke-width="1.5" stroke-linecap="round" stroke-linejoin="round"/>
<path d="M5 5H19" stroke="black" stroke-width="1.5" stroke-linecap="round" stroke-linejoin="round"/>
<path d="M18 14H6C5.44772 14 5 14.4477 5 15V18C5 18.5523 5.44772 19 6 19H18C18.5523 19 19 18.5523 19 18V15C19 14.4477 18.5523 14 18 14Z" stroke="black" stroke-width="1.5" stroke-linecap="round" stroke-linejoin="round"/>
</svg>
