<svg width="24" height="24" viewBox="0 0 24 24" fill="none" xmlns="http://www.w3.org/2000/svg">
<path d="M8 7C8 6.07003 8 5.60504 8.10222 5.22354C8.37962 4.18827 9.18827 3.37962 10.2235 3.10222C10.605 3 11.07 3 12 3V3C12.93 3 13.395 3 13.7765 3.10222C14.8117 3.37962 15.6204 4.18827 15.8978 5.22354C16 5.60504 16 6.07003 16 7V7H8V7Z" stroke="black" stroke-width="1.5"/>
<path d="M6 7H18V16.2C18 17.8802 18 18.7202 17.673 19.362C17.3854 19.9265 16.9265 20.3854 16.362 20.673C15.7202 21 14.8802 21 13.2 21H10.8C9.11984 21 8.27976 21 7.63803 20.673C7.07354 20.3854 6.6146 19.9265 6.32698 19.362C6 18.7202 6 17.8802 6 16.2V7Z" stroke="black" stroke-width="1.5"/>
<path d="M3 7H21" stroke="black" stroke-width="1.5" stroke-linecap="round" stroke-linejoin="round"/>
</svg>
