<svg width="24" height="24" viewBox="0 0 24 24" fill="none" xmlns="http://www.w3.org/2000/svg">
<path d="M4.63803 20.673L4.29754 21.3413L4.63803 20.673ZM3.32698 19.362L2.65873 19.7025L3.32698 19.362ZM20.673 19.362L21.3413 19.7025L20.673 19.362ZM19.362 20.673L19.7025 21.3413L19.362 20.673ZM19.362 8.32698L19.7025 7.65873L19.362 8.32698ZM20.673 9.63803L21.3413 9.29754L20.673 9.63803ZM4.63803 8.32698L4.29754 7.65873L4.63803 8.32698ZM3.32698 9.63803L2.65873 9.29754L3.32698 9.63803ZM12 8L11.4697 8.53033C11.7626 8.82322 12.2374 8.82322 12.5303 8.53033L12 8ZM17.5303 3.53033C17.8232 3.23744 17.8232 2.76256 17.5303 2.46967C17.2374 2.17678 16.7626 2.17678 16.4697 2.46967L17.5303 3.53033ZM7.53033 2.46967C7.23744 2.17678 6.76256 2.17678 6.46967 2.46967C6.17678 2.76256 6.17678 3.23744 6.46967 3.53033L7.53033 2.46967ZM7.8 8.75H16.2V7.25H7.8V8.75ZM20.25 12.8V16.2H21.75V12.8H20.25ZM16.2 20.25H7.8V21.75H16.2V20.25ZM3.75 16.2V12.8H2.25V16.2H3.75ZM7.8 20.25C6.94755 20.25 6.35331 20.2494 5.89068 20.2116C5.4368 20.1745 5.17604 20.1054 4.97852 20.0048L4.29754 21.3413C4.74175 21.5676 5.22189 21.662 5.76853 21.7066C6.30641 21.7506 6.9723 21.75 7.8 21.75V20.25ZM2.25 16.2C2.25 17.0277 2.24942 17.6936 2.29336 18.2315C2.33803 18.7781 2.43238 19.2582 2.65873 19.7025L3.99524 19.0215C3.8946 18.824 3.82546 18.5632 3.78838 18.1093C3.75058 17.6467 3.75 17.0525 3.75 16.2H2.25ZM4.97852 20.0048C4.55516 19.789 4.21095 19.4448 3.99524 19.0215L2.65873 19.7025C3.01825 20.4081 3.59193 20.9817 4.29754 21.3413L4.97852 20.0048ZM20.25 16.2C20.25 17.0525 20.2494 17.6467 20.2116 18.1093C20.1745 18.5632 20.1054 18.824 20.0048 19.0215L21.3413 19.7025C21.5676 19.2582 21.662 18.7781 21.7066 18.2315C21.7506 17.6936 21.75 17.0277 21.75 16.2H20.25ZM16.2 21.75C17.0277 21.75 17.6936 21.7506 18.2315 21.7066C18.7781 21.662 19.2582 21.5676 19.7025 21.3413L19.0215 20.0048C18.824 20.1054 18.5632 20.1745 18.1093 20.2116C17.6467 20.2494 17.0525 20.25 16.2 20.25V21.75ZM20.0048 19.0215C19.789 19.4448 19.4448 19.789 19.0215 20.0048L19.7025 21.3413C20.4081 20.9817 20.9817 20.4081 21.3413 19.7025L20.0048 19.0215ZM16.2 8.75C17.0525 8.75 17.6467 8.75058 18.1093 8.78838C18.5632 8.82546 18.824 8.8946 19.0215 8.99524L19.7025 7.65873C19.2582 7.43239 18.7781 7.33803 18.2315 7.29336C17.6936 7.24942 17.0277 7.25 16.2 7.25V8.75ZM21.75 12.8C21.75 11.9723 21.7506 11.3064 21.7066 10.7685C21.662 10.2219 21.5676 9.74175 21.3413 9.29754L20.0048 9.97852C20.1054 10.176 20.1745 10.4368 20.2116 10.8907C20.2494 11.3533 20.25 11.9475 20.25 12.8H21.75ZM19.0215 8.99524C19.4448 9.21095 19.789 9.55516 20.0048 9.97852L21.3413 9.29754C20.9817 8.59193 20.4081 8.01825 19.7025 7.65873L19.0215 8.99524ZM7.8 7.25C6.9723 7.25 6.30641 7.24942 5.76853 7.29336C5.22189 7.33803 4.74175 7.43239 4.29754 7.65873L4.97852 8.99524C5.17604 8.8946 5.4368 8.82546 5.89068 8.78838C6.35331 8.75058 6.94755 8.75 7.8 8.75V7.25ZM3.75 12.8C3.75 11.9475 3.75058 11.3533 3.78838 10.8907C3.82546 10.4368 3.8946 10.176 3.99524 9.97852L2.65873 9.29754C2.43238 9.74175 2.33803 10.2219 2.29336 10.7685C2.24942 11.3064 2.25 11.9723 2.25 12.8H3.75ZM4.29754 7.65873C3.59193 8.01825 3.01825 8.59193 2.65873 9.29754L3.99524 9.97852C4.21095 9.55516 4.55516 9.21095 4.97852 8.99524L4.29754 7.65873ZM12.5303 8.53033L17.5303 3.53033L16.4697 2.46967L11.4697 7.46967L12.5303 8.53033ZM12.5303 7.46967L7.53033 2.46967L6.46967 3.53033L11.4697 8.53033L12.5303 7.46967Z" fill="black"/>
</svg>
