<svg width="24" height="24" viewBox="0 0 24 24" fill="none" xmlns="http://www.w3.org/2000/svg">
<path d="M12 3.53513C12.5741 3.21655 13.2969 3 14 3C16.2091 3 18 4.79086 18 7C18 9.20914 16.2091 11 14 11C13.2714 11 12.5883 10.8052 12 10.4649M12 10.4649C13.1956 9.77325 14 8.48056 14 7C14 4.79086 12.2091 3 10 3C7.79086 3 6 4.79086 6 7C6 9.20914 7.79086 11 10 11C10.7286 11 11.4117 10.8052 12 10.4649Z" stroke="black" stroke-width="1.5"/>
<path d="M12.0001 14.2899C12.6338 14.1013 13.3051 14 14 14C16.8278 14 19.264 15.6768 20.3685 18.0903C21.058 19.5969 19.6569 21 18 21H7.00003M3.63153 18.0903C4.73604 15.6768 7.17221 14 10 14C12.8278 14 15.264 15.6768 16.3685 18.0903C17.058 19.5969 15.6569 21 14 21H6.00003C4.34317 21 2.94208 19.5969 3.63153 18.0903Z" stroke="black" stroke-width="1.5"/>
</svg>
