<svg width="24" height="24" viewBox="0 0 24 24" fill="none" xmlns="http://www.w3.org/2000/svg">
<circle cx="10" cy="7" r="4" stroke="black" stroke-width="1.5"/>
<path d="M11.8328 10.3626C12.4573 10.7659 13.2013 11 14 11C16.2092 11 18 9.20914 18 7C18 4.79086 16.2092 3 14 3C13.2969 3 12.6361 3.18142 12.062 3.5" stroke="black" stroke-width="1.5"/>
<path d="M10 14C7.17219 14 4.73601 15.6768 3.63151 18.0903C2.94205 19.5969 4.34315 21 6 21H14C15.6569 21 17.058 19.5969 16.3685 18.0903C15.264 15.6768 12.8278 14 10 14Z" stroke="black" stroke-width="1.5"/>
<path d="M7 21H12H18C19.6569 21 21.058 19.5969 20.3685 18.0903C19.264 15.6768 16.8278 14 14 14C13.305 14 12.6337 14.1013 12 14.2899" stroke="black" stroke-width="1.5"/>
</svg>
