<svg width="24" height="24" viewBox="0 0 24 24" fill="none" xmlns="http://www.w3.org/2000/svg">
<path d="M3 10.6V13.4C3 13.9601 3 14.2401 3.10899 14.454C3.20487 14.6422 3.35785 14.7951 3.54601 14.891C3.75992 15 4.03995 15 4.6 15H6.43875C6.64677 15 6.75078 15 6.85026 15.0204C6.93852 15.0385 7.02393 15.0685 7.10417 15.1095C7.19461 15.1557 7.27583 15.2207 7.43826 15.3506L9.40049 16.9204C10.2327 17.5861 10.6487 17.919 10.9989 17.9194C11.3035 17.9197 11.5916 17.7812 11.7815 17.5432C12 17.2696 12 16.7367 12 15.671V8.329C12 7.2633 12 6.73045 11.7815 6.45678C11.5916 6.21876 11.3035 6.0803 10.9989 6.08063C10.6487 6.08101 10.2327 6.41388 9.40049 7.07961L7.43826 8.64939C7.27583 8.77934 7.19461 8.84431 7.10417 8.89052C7.02393 8.93151 6.93852 8.96147 6.85026 8.97959C6.75078 9 6.64677 9 6.43875 9H4.6C4.03995 9 3.75992 9 3.54601 9.109C3.35785 9.20487 3.20487 9.35785 3.10899 9.54601C3 9.75992 3 10.0399 3 10.6Z" stroke="black" stroke-width="1.5" stroke-linejoin="round"/>
<path d="M15 7.99963C16.2144 8.91184 17 10.3642 17 12C17 13.6358 16.2144 15.0882 15 16.0004" stroke="black" stroke-width="1.5" stroke-linecap="round" stroke-linejoin="round"/>
</svg>
