<svg width="24" height="24" viewBox="0 0 24 24" fill="none" xmlns="http://www.w3.org/2000/svg">
<path d="M2.46967 20.4697C2.17678 20.7626 2.17678 21.2374 2.46967 21.5303C2.76256 21.8232 3.23744 21.8232 3.53033 21.5303L2.46967 20.4697ZM3.53033 21.5303L11.5303 13.5303L10.4697 12.4697L2.46967 20.4697L3.53033 21.5303Z" fill="black"/>
<path d="M21.5303 3.53033C21.8232 3.23744 21.8232 2.76256 21.5303 2.46967C21.2374 2.17678 20.7626 2.17678 20.4697 2.46967L21.5303 3.53033ZM13.5303 11.5303L21.5303 3.53033L20.4697 2.46967L12.4697 10.4697L13.5303 11.5303Z" fill="black"/>
<path d="M7 3L21 21H17L3 3H7Z" stroke="black" stroke-width="1.5" stroke-linejoin="round"/>
</svg>
