<svg fill="none" height="24" viewBox="0 0 24 24" width="24" xmlns="http://www.w3.org/2000/svg"><path clip-rule="evenodd" d="m3.75 12c0-4.55635 3.69365-8.25 8.25-8.25 4.5563 0 8.25 3.69365 8.25 8.25 0 4.5563-3.6937 8.25-8.25 8.25-4.55635 0-8.25-3.6937-8.25-8.25zm8.25-9.75c-5.38478 0-9.75 4.36522-9.75 9.75 0 5.3848 4.36522 9.75 9.75 9.75 5.3848 0 9.75-4.3652 9.75-9.75 0-5.38478-4.3652-9.75-9.75-9.75zm.75 3.75c0-.41421-.3358-.75-.75-.75s-.75.33579-.75.75v4.0118.0854c-.0002.6516-.0003 1.1026.1036 1.5356.0919.3826.2434.7484.449 1.0839.2327.3797.5517.6985 1.0125 1.1591l.0605.0604 2.5941 2.5941c.2929.2929.7677.2929 1.0606 0s.2929-.7677 0-1.0606l-2.5941-2.5941c-.5441-.5441-.7263-.7332-.8546-.9426-.1234-.2013-.2143-.4208-.2694-.6504-.0574-.2389-.0622-.5014-.0622-1.2708z" fill="#000" fill-rule="evenodd"/></svg>