<svg fill="none" height="24" viewBox="0 0 24 24" width="24" xmlns="http://www.w3.org/2000/svg"><path clip-rule="evenodd" d="m12 3.75c-4.55635 0-8.25 3.69365-8.25 8.25 0 4.5563 3.69365 8.25 8.25 8.25 4.5563 0 8.25-3.6937 8.25-8.25 0-4.55635-3.6937-8.25-8.25-8.25zm-9.75 8.25c0-5.38478 4.36522-9.75 9.75-9.75 5.3848 0 9.75 4.36522 9.75 9.75 0 5.3848-4.3652 9.75-9.75 9.75-5.38478 0-9.75-4.3652-9.75-9.75zm9.75-4.25c.4142 0 .75.33579.75.75v3.5c0 .4142-.3358.75-.75.75s-.75-.3358-.75-.75v-3.5c0-.41421.3358-.75.75-.75zm0 6.25c-.5523 0-1 .4477-1 1s.4477 1 1 1h.01c.5523 0 1-.4477 1-1s-.4477-1-1-1z" fill="#000" fill-rule="evenodd"/></svg>