<svg fill="none" height="24" viewBox="0 0 24 24" width="24" xmlns="http://www.w3.org/2000/svg"><path clip-rule="evenodd" d="m8.46967 5.46967c.29289-.29289.76776-.29289 1.06066 0 .29289.29289.29289.76777 0 1.06066l-2.60589 2.60589c-.60278.60277-1.02255 1.02338-1.32295 1.37728-.26948.3174-.40585.5396-.4796.7365h15.87811c.4142 0 .75.3358.75.75s-.3358.75-.75.75h-15.87811c.07375.1969.21012.4191.4796.7365.3004.3539.72017.7745 1.32295 1.3773l2.60589 2.6059c.29289.2929.29289.7677 0 1.0606-.2929.2929-.76777.2929-1.06066 0l-2.60589-2.6059-.02271-.0227h-.00002c-.57476-.5747-1.03834-1.0383-1.38307-1.4444-.35495-.4181-.62774-.8243-.7818-1.2985-.24472-.7531-.24472-1.5645 0-2.3176.15406-.4742.42685-.8804.7818-1.29852.34474-.40608.80833-.86967 1.3831-1.44443h.00001l.02269-.02269z" fill="#000" fill-rule="evenodd"/></svg>