<svg fill="none" height="24" viewBox="0 0 24 24" width="24" xmlns="http://www.w3.org/2000/svg"><path clip-rule="evenodd" d="m7.8 2.25h-.0321-.00002c-.81283-.00001-1.46844-.00001-1.99935.04336-.54663.04467-1.02678.13903-1.47099.36537-.70561.35952-1.27929.9332-1.63881 1.63881-.22634.44421-.3207.92436-.36537 1.47099-.04337.53091-.04337 1.18652-.04336 1.99935v.00002.0321 8.4.0321c-.00001.8129-.00001 1.4685.04336 1.9994.04467.5466.13903 1.0267.36537 1.471.35952.7056.9332 1.2792 1.63881 1.6388.44421.2263.92436.3207 1.47099.3653.53091.0434 1.18652.0434 1.99935.0434h.03212 8.4.0321c.8129 0 1.4685 0 1.9994-.0434.5466-.0446 1.0267-.139 1.471-.3653.7056-.3596 1.2792-.9332 1.6388-1.6388.2263-.4443.3207-.9244.3653-1.471.0434-.5309.0434-1.1865.0434-1.9994v-.0321-8.4-.03212c0-.81283 0-1.46844-.0434-1.99935-.0446-.54663-.139-1.02678-.3653-1.47099-.3596-.70561-.9332-1.27929-1.6388-1.63881-.4443-.22634-.9244-.3207-1.471-.36537-.5309-.04337-1.1865-.04337-1.9994-.04336h-.0321zm-2.82148 1.74524c.19752-.10064.45829-.16977.91216-.20686.46263-.0378 1.05687-.03838 1.90932-.03838h8.4c.8525 0 1.4467.00058 1.9093.03838.4539.03709.7147.10622.9122.20686.4233.21571.7675.55992.9833.98328.1006.19752.1697.45829.2068.91216.0378.46263.0384 1.05687.0384 1.90932v8.4c0 .8525-.0006 1.4467-.0384 1.9093-.0371.4539-.1062.7147-.2068.9122-.2158.4233-.56.7675-.9833.9833-.1975.1006-.4583.1697-.9122.2068-.4626.0378-1.0568.0384-1.9093.0384h-8.4c-.85245 0-1.44669-.0006-1.90932-.0384-.45387-.0371-.71464-.1062-.91216-.2068-.42336-.2158-.76757-.56-.98328-.9833-.10064-.1975-.16977-.4583-.20686-.9122-.0378-.4626-.03838-1.0568-.03838-1.9093v-8.4c0-.85245.00058-1.44669.03838-1.90932.03709-.45387.10622-.71464.20686-.91216.21571-.42336.55992-.76757.98328-.98328zm8.22148 2.75476c.8525 0 1.4467.00058 1.9093.03838.4539.03709.7147.10622.9122.20686.4233.21571.7675.55992.9833.98328.1006.19752.1697.45828.2068.91216.0378.46263.0384 1.05687.0384 1.90932v2.2c0 .4142.3358.75.75.75s.75-.3358.75-.75v-2.2-.0321c0-.81284 0-1.46846-.0434-1.99937-.0446-.54663-.139-1.02678-.3653-1.47099-.3596-.70561-.9332-1.27929-1.6388-1.63881-.4443-.22634-.9244-.3207-1.471-.36537-.5309-.04337-1.1866-.04337-1.9994-.04336h-.0321-2.2c-.4142 0-.75.33579-.75.75s.3358.75.75.75z" fill="#000" fill-rule="evenodd"/></svg>