<svg fill="none" height="24" viewBox="0 0 24 24" width="24" xmlns="http://www.w3.org/2000/svg"><g clip-rule="evenodd" fill="#000" fill-rule="evenodd"><path d="m15.25 9.41666c-.6568 0-1.2907.26744-1.7611.74994-.471.483-.7389 1.1422-.7389 1.8334s.2679 1.3503.7389 1.8334c.4704.4825 1.1043.7499 1.7611.7499s1.2907-.2674 1.7611-.7499c.471-.4831.7389-1.1422.7389-1.8334s-.2679-1.3504-.7389-1.8334c-.4704-.4825-1.1043-.74994-1.7611-.74994zm-2.8351-.29726c.7486-.76779 1.768-1.20274 2.8351-1.20274s2.0865.43495 2.8351 1.20274c.748.76715 1.1649 1.8037 1.1649 2.8806s-.4169 2.1134-1.1649 2.8806c-.7486.7678-1.768 1.2027-2.8351 1.2027s-2.0865-.4349-2.8351-1.2027c-.748-.7672-1.1649-1.8037-1.1649-2.8806s.4169-2.11345 1.1649-2.8806z"/><path d="m8.75 16.0833c-.65683 0-1.29071.2675-1.7611.7499-.47101.4831-.7389 1.1423-.7389 1.8335s.26789 1.3503.7389 1.8334c.47039.4825 1.10427.7499 1.7611.7499s1.2907-.2674 1.7611-.7499c.471-.4831.7389-1.1422.7389-1.8334v-2.5834zm-4 2.5834c0-1.077.41693-2.1135 1.1649-2.8806.7486-.7678 1.76802-1.2028 2.8351-1.2028h4v4.0834c0 1.0769-.4169 2.1134-1.1649 2.8806-.7486.7678-1.76802 1.2027-2.8351 1.2027s-2.0865-.4349-2.8351-1.2027c-.57209-.5868-.95052-1.3311-1.09686-2.1306h-.06804z"/><path d="m11.25 1.25h4c1.0671 0 2.0865.43494 2.8351 1.20274.748.76714 1.1649 1.80367 1.1649 2.88059 0 1.07693-.4169 2.11345-1.1649 2.8806-.7486.76779-1.768 1.20274-2.8351 1.20274h-4zm1.5 1.5v5.16667h2.5c.6568 0 1.2907-.26744 1.7611-.74989.471-.48309.7389-1.14226.7389-1.83345 0-.69118-.2679-1.35035-.7389-1.83344-.4704-.48245-1.1043-.74989-1.7611-.74989z"/><path d="m5.9149 2.45274c.7486-.7678 1.76802-1.20274 2.8351-1.20274h4v8.16667h-4c-1.06708 0-2.0865-.43495-2.8351-1.20274-.57209-.58676-.95052-1.33111-1.09686-2.1306h-.06804v-.75c0-1.07692.41693-2.11345 1.1649-2.88059zm.3351 2.88059c0 .69119.26789 1.35036.7389 1.83345.47039.48245 1.10427.74989 1.7611.74989h2.5v-5.16667h-2.5c-.65683 0-1.29071.26744-1.7611.74989-.47101.48309-.7389 1.14226-.7389 1.83344z"/><path d="m5.9149 9.1194c.7486-.76779 1.76802-1.20274 2.8351-1.20274h4v8.16664h-4c-1.06708 0-2.0865-.4349-2.8351-1.2027-.57209-.5868-.95052-1.3311-1.09686-2.1306h-.06804v-.75c0-1.0769.41693-2.11345 1.1649-2.8806zm.3351 2.8806c0 .6912.26789 1.3503.7389 1.8334.47039.4825 1.10427.7499 1.7611.7499h2.5v-5.16664h-2.5c-.65683 0-1.29071.26744-1.7611.74994-.47101.483-.7389 1.1422-.7389 1.8334z"/></g></svg>