<svg fill="none" height="24" viewBox="0 0 24 24" width="24" xmlns="http://www.w3.org/2000/svg"><path clip-rule="evenodd" d="m10.7322 5.08057c.8196-.2944 1.716-.2944 2.5356 0 .5204.18694.9553.52193 1.3962.95466.4304.42245.9187.9921 1.5272 1.70206v.00005l.0001.00003.0226.02637 2.3555 2.74816c.2696.3145.2332.788-.0813 1.0575-.3145.2696-.788.2332-1.0575-.0813l-2.3556-2.74817c-.6364-.74245-1.083-1.26244-1.4617-1.6342-.3736-.36672-.626-.53208-.8526-.61348l-.0107-.0038v10.51155c0 .4142-.3358.75-.75.75s-.75-.3358-.75-.75v-10.51155l-.0107.0038c-.2266.0814-.479.24676-.8526.61348-.3787.37176-.8253.89175-1.46169 1.6342l-2.35557 2.74817c-.26956.3145-.74304.3509-1.05753.0813-.3145-.2695-.35092-.743-.08135-1.0575l2.35557-2.74816.0226-.02637c.60856-.70999 1.09684-1.27967 1.52726-1.70214.44087-.43273.87581-.76772 1.39621-.95466zm-6.9822 9.91943c0-.4142-.33579-.75-.75-.75s-.75.3358-.75.75v.2.0321c-.00001.8128-.00001 1.4685.04336 1.9994.04467.5466.13903 1.0267.36537 1.471.35952.7056.9332 1.2792 1.63881 1.6388.44421.2263.92436.3207 1.47099.3653.53091.0434 1.18651.0434 1.99934.0434h.00003.0321 8.4.0321c.8129 0 1.4685 0 1.9994-.0434.5466-.0446 1.0267-.139 1.471-.3653.7056-.3596 1.2792-.9332 1.6388-1.6388.2263-.4443.3207-.9244.3653-1.471.0434-.5309.0434-1.1865.0434-1.9994v-.0321-.2c0-.4142-.3358-.75-.75-.75s-.75.3358-.75.75v.2c0 .8525-.0006 1.4467-.0384 1.9093-.0371.4539-.1062.7147-.2068.9122-.2158.4233-.56.7675-.9833.9833-.1975.1006-.4583.1697-.9122.2068-.4626.0378-1.0568.0384-1.9093.0384h-8.4c-.85245 0-1.44669-.0006-1.90932-.0384-.45387-.0371-.71464-.1062-.91216-.2068-.42336-.2158-.76757-.56-.98328-.9833-.10064-.1975-.16977-.4583-.20686-.9122-.0378-.4626-.03838-1.0568-.03838-1.9093z" fill="#000" fill-rule="evenodd"/></svg>